<?xml version="1.0" standalone="no"?>
<!DOCTYPE svg PUBLIC "-//W3C//DTD SVG 20010904//EN"
 "http://www.w3.org/TR/2001/REC-SVG-20010904/DTD/svg10.dtd">
<svg version="1.0" xmlns="http://www.w3.org/2000/svg"
 width="500.000000pt" height="500.000000pt" viewBox="0 0 500.000000 500.000000"
 preserveAspectRatio="xMidYMid meet">

<g transform="translate(0.000000,500.000000) scale(0.100000,-0.100000)"
fill="#000000" stroke="none">
<path d="M2375 3858 c-4 -9 -2 -59 4 -112 6 -52 11 -102 11 -111 0 -8 5 -15
11 -15 8 0 9 35 4 118 -7 112 -17 154 -30 120z"/>
<path d="M2493 3798 c-27 -13 -45 -67 -36 -109 7 -34 46 -69 78 -69 32 0 72
35 80 70 8 38 -11 97 -35 110 -24 13 -59 12 -87 -2z m79 -25 c12 -11 18 -30
18 -58 0 -47 -16 -67 -55 -67 -38 0 -55 20 -55 65 0 67 49 99 92 60z"/>
<path d="M2677 3784 c-3 -10 -13 -60 -21 -110 -9 -50 -18 -98 -22 -108 -4 -10
-1 -16 9 -16 10 0 17 15 22 46 l7 46 19 -21 c30 -32 82 -28 108 8 53 74 4 180
-71 152 -16 -6 -26 -4 -34 7 -10 14 -12 13 -17 -4z m108 -35 c5 -5 10 -27 10
-49 0 -52 -31 -86 -69 -76 -47 12 -55 82 -14 126 19 21 50 20 73 -1z"/>
<path d="M2223 3780 c-46 -19 -58 -100 -22 -151 16 -23 28 -29 57 -29 41 0 82
23 82 46 0 20 -14 18 -35 -6 -22 -24 -58 -26 -79 -4 -20 19 -21 44 -1 44 7 0
37 5 65 11 45 10 50 13 44 32 -14 48 -67 75 -111 57z m67 -32 c25 -27 18 -34
-42 -42 -37 -6 -48 -4 -48 6 0 25 31 54 62 57 4 1 16 -9 28 -21z"/>
<path d="M2093 3669 c3 -44 2 -79 -3 -77 -4 2 -29 29 -55 61 -32 40 -51 55
-58 48 -11 -11 110 -154 127 -148 7 2 12 42 14 100 2 85 1 97 -14 97 -15 0
-16 -10 -11 -81z"/>
<path d="M2879 3701 c-57 -57 -26 -161 48 -161 34 0 58 14 49 29 -5 7 -12 7
-26 -1 -16 -10 -24 -9 -47 8 -24 18 -46 74 -28 74 3 0 33 -11 67 -25 34 -14
62 -25 64 -25 7 0 13 54 8 75 -7 27 -49 55 -84 55 -12 0 -35 -13 -51 -29z m93
-8 c10 -9 18 -26 18 -39 0 -22 0 -22 -50 -6 -54 17 -58 22 -34 46 20 21 43 20
66 -1z"/>
<path d="M3241 3617 c-33 -51 -83 -126 -111 -166 -27 -41 -50 -79 -50 -83 0
-23 22 3 89 105 41 61 82 121 91 132 32 38 61 93 52 99 -5 3 -37 -36 -71 -87z"/>
<path d="M3047 3588 c-39 -76 -43 -88 -29 -88 5 0 21 22 35 49 35 64 49 74 88
66 24 -6 30 -4 27 6 -3 8 -19 14 -37 14 -21 0 -30 4 -26 12 2 7 -1 13 -8 13
-7 0 -29 -33 -50 -72z"/>
<path d="M1840 3630 c-32 -32 -35 -64 -8 -112 22 -40 27 -43 70 -46 40 -3 49
1 67 24 21 27 28 54 14 54 -5 0 -16 -14 -25 -30 -13 -22 -24 -30 -46 -30 -27
0 -52 15 -52 32 0 4 15 14 33 23 17 8 43 24 56 34 l24 19 -26 26 c-32 32 -79
34 -107 6z m80 -15 c14 -17 7 -24 -52 -60 -28 -16 -28 -16 -28 11 0 51 52 83
80 49z"/>
<path d="M1625 3551 c-16 -11 -41 -29 -54 -39 l-24 -20 78 -91 c42 -50 80 -91
82 -91 2 0 20 12 39 27 38 28 64 70 64 102 0 34 -30 86 -64 109 -40 27 -82 28
-121 3z m111 -26 c12 -8 29 -30 38 -50 21 -44 10 -81 -34 -113 l-29 -22 -48
58 c-26 31 -54 63 -60 70 -17 18 -16 26 5 45 40 37 82 41 128 12z"/>
<path d="M3444 3365 c-33 -42 -68 -87 -78 -101 -15 -18 -17 -27 -9 -35 9 -9
34 -2 99 25 48 20 89 34 92 32 2 -3 -21 -39 -53 -81 -74 -98 -69 -114 22 -76
37 15 89 36 116 45 45 17 54 25 41 38 -3 4 -47 -11 -97 -32 -50 -21 -93 -37
-95 -35 -2 2 24 37 57 78 90 111 83 123 -45 72 -48 -19 -89 -33 -92 -31 -2 3
24 39 58 81 42 51 59 80 52 87 -6 6 -29 -15 -68 -67z"/>
<path d="M1466 3305 c-5 -13 -10 -14 -27 -5 -27 15 -36 5 -16 -18 13 -15 14
-21 4 -31 -10 -11 -8 -13 12 -8 18 4 39 -4 82 -34 49 -35 60 -39 78 -29 12 6
21 17 21 25 0 17 -16 20 -25 5 -10 -16 -19 -12 -68 26 -39 30 -46 41 -41 60 7
26 -10 33 -20 9z"/>
<path d="M1370 3156 c-15 -17 -21 -33 -18 -49 3 -14 0 -24 -6 -23 -29 3 -13
-21 30 -44 27 -15 74 -41 106 -59 33 -19 59 -28 62 -22 6 9 -12 24 -58 49 -18
9 -17 11 10 23 26 13 29 20 29 59 0 39 -4 47 -34 67 -45 31 -91 30 -121 -1z
m109 -22 c37 -31 41 -67 9 -88 -30 -19 -74 -10 -98 22 -24 30 -25 50 -3 74 23
25 56 23 92 -8z"/>
<path d="M3563 3078 c-11 -5 -29 -25 -39 -43 -15 -28 -16 -37 -4 -64 18 -45
70 -80 70 -47 0 7 -9 16 -20 19 -11 3 -25 17 -31 31 -10 20 -9 30 5 51 9 14
20 25 25 25 5 0 19 -25 31 -55 12 -31 27 -58 32 -61 14 -9 68 46 68 68 0 27
-26 75 -45 82 -24 9 -67 6 -92 -6z m85 -24 c25 -18 30 -65 8 -84 -12 -9 -18
-4 -35 29 -34 66 -23 90 27 55z"/>
<path d="M1224 3029 c-10 -17 13 -36 27 -22 12 12 4 33 -11 33 -5 0 -12 -5
-16 -11z"/>
<path d="M1290 2997 c0 -11 36 -28 153 -72 11 -5 17 -2 17 8 0 8 -11 18 -25
21 -14 4 -50 18 -80 31 -62 29 -65 29 -65 12z"/>
<path d="M1264 2935 c-4 -8 -4 -24 -1 -35 3 -11 -1 -21 -9 -24 -20 -8 -17 -26
4 -26 10 0 51 -11 90 -24 56 -20 72 -22 72 -11 0 9 -24 21 -60 31 -63 18 -86
40 -77 75 6 23 -11 36 -19 14z"/>
<path d="M3680 2894 c-100 -26 -124 -39 -101 -53 8 -5 11 -16 7 -29 -17 -53
51 -104 110 -82 73 28 97 91 48 129 l-26 20 46 12 c25 6 46 15 46 20 0 13 -25
10 -130 -17z m34 -35 c24 -12 39 -41 30 -63 -6 -17 -58 -46 -81 -46 -10 0 -29
7 -41 16 -35 24 -26 64 18 86 41 21 42 21 74 7z"/>
<path d="M1226 2768 c-34 -48 -10 -110 48 -126 42 -12 79 -5 105 19 27 26 28
80 1 104 -34 31 -39 7 -8 -36 9 -14 8 -22 -5 -43 -37 -56 -149 -16 -133 48 3
13 15 28 26 31 26 8 26 25 1 25 -11 0 -27 -10 -35 -22z"/>
<path d="M3708 2640 c3 -30 9 -50 16 -50 8 0 10 14 6 47 -7 64 -26 67 -22 3z"/>
<path d="M1297 2585 c-9 -8 -18 -28 -22 -44 -9 -40 -30 -58 -50 -41 -20 16
-19 44 1 65 18 18 13 30 -10 22 -22 -9 -30 -53 -16 -88 11 -25 18 -30 44 -27
26 3 33 9 47 48 11 30 23 46 37 48 28 4 38 -42 17 -75 -22 -33 -9 -45 16 -14
25 30 24 76 -1 101 -24 24 -43 25 -63 5z"/>
<path d="M3620 2473 c0 -79 24 -117 81 -131 52 -13 117 -1 136 24 17 24 33 81
33 120 0 31 0 31 -67 37 -38 4 -94 7 -125 7 l-58 0 0 -57z m192 21 c38 -7 38
-7 32 -48 -8 -56 -42 -86 -98 -86 -66 0 -96 28 -96 91 l0 49 63 0 c34 0 79 -3
99 -6z"/>
<path d="M1301 2415 c-72 -11 -101 -29 -101 -61 0 -21 20 -68 33 -76 22 -14
27 4 7 29 -26 33 -26 59 0 73 27 15 36 7 45 -37 4 -21 11 -44 17 -50 13 -16
60 -17 76 -1 17 17 15 73 -3 88 -12 10 -13 15 -4 20 30 19 -1 25 -70 15z m59
-46 c16 -29 4 -69 -19 -69 -13 0 -24 13 -35 40 -21 52 -21 50 14 50 20 0 33
-7 40 -21z"/>
<path d="M3622 2288 c-38 -19 -48 -114 -12 -126 10 -4 11 1 6 19 -16 52 6 99
47 99 17 0 19 -4 12 -32 -3 -18 -9 -50 -12 -70 -6 -37 -5 -38 26 -38 44 0 67
14 79 48 26 75 -66 138 -146 100z m128 -74 c0 -28 -25 -54 -51 -54 -15 0 -19
5 -15 18 3 9 8 31 12 47 4 17 9 34 11 38 8 14 43 -25 43 -49z"/>
<path d="M1226 2200 c6 -6 46 -14 89 -18 l78 -7 -49 -32 c-74 -49 -87 -61 -80
-72 10 -16 156 90 156 113 0 15 -64 26 -148 26 -39 0 -53 -3 -46 -10z"/>
<path d="M1385 2052 c-61 -32 -70 -41 -73 -68 -3 -33 29 -84 54 -84 19 0 18
16 -1 24 -25 9 -40 53 -25 71 18 22 24 19 55 -25 29 -42 68 -53 93 -28 26 26
4 98 -29 98 -5 0 -7 11 -3 25 3 14 5 25 3 25 -2 0 -35 -17 -74 -38z m83 -46
c12 -24 12 -30 0 -42 -19 -20 -45 -8 -64 29 -13 24 -14 31 -2 38 23 16 52 5
66 -25z"/>
<path d="M3535 2070 c-5 -9 114 -130 136 -138 27 -10 2 29 -48 75 l-58 54 83
-7 c72 -6 82 -5 82 10 0 14 -14 16 -94 16 -52 0 -98 -4 -101 -10z"/>
<path d="M3467 1932 c-20 -22 -34 -62 -29 -84 6 -31 22 -19 22 17 0 40 35 71
70 60 26 -8 26 -14 -10 -66 -16 -24 -30 -49 -30 -55 0 -13 32 -24 68 -24 49 0
79 69 52 121 -24 44 -113 64 -143 31z m128 -53 c11 -33 -3 -68 -30 -75 -38 -9
-47 3 -29 39 31 61 48 72 59 36z"/>
<path d="M1430 1854 c-76 -53 -96 -71 -87 -80 6 -6 19 1 112 64 27 17 59 32
72 32 28 0 48 -33 34 -59 -12 -21 -5 -32 15 -24 23 9 17 67 -9 91 -34 32 -65
27 -137 -24z"/>
<path d="M3384 1809 c-6 -10 32 -46 116 -111 61 -46 68 -50 74 -39 3 4 -37 43
-89 85 -55 44 -97 71 -101 65z"/>
<path d="M3308 1724 c-75 -40 -28 -164 62 -164 42 0 80 33 80 69 0 38 -30 82
-65 97 -42 17 -43 17 -77 -2z m99 -53 c13 -19 23 -38 23 -42 0 -17 -40 -49
-61 -49 -26 0 -79 52 -79 79 0 59 80 68 117 12z"/>
<path d="M1550 1713 c0 -16 67 -86 73 -76 3 5 -8 26 -24 46 -28 35 -49 47 -49
30z"/>
<path d="M3160 1677 c0 -7 11 -28 25 -47 27 -37 30 -45 14 -35 -18 12 -58 -4
-75 -30 -21 -32 -12 -72 26 -113 19 -22 38 -32 57 -32 38 0 73 26 73 53 0 18
2 19 10 7 6 -10 12 -12 20 -4 7 7 -3 29 -37 75 -27 35 -59 81 -73 102 -26 38
-40 47 -40 24z m54 -103 c24 -9 58 -71 52 -92 -4 -11 -18 -24 -33 -31 -23 -10
-30 -9 -52 7 -69 51 -42 145 33 116z"/>
<path d="M1788 1625 c-4 -4 -2 -15 4 -25 9 -14 5 -27 -26 -69 -38 -52 -50 -59
-61 -41 -4 6 -11 7 -17 4 -7 -5 -5 -12 7 -20 15 -11 16 -16 6 -28 -7 -8 -9
-21 -5 -27 5 -9 11 -7 20 5 7 10 17 15 23 11 18 -10 34 5 21 20 -8 9 0 26 30
66 22 29 40 56 40 60 0 13 -35 50 -42 44z"/>
<path d="M1862 1533 c-23 -9 -1 -22 29 -16 21 4 35 0 49 -12 27 -25 25 -57 -6
-94 -38 -46 -86 -40 -95 13 -6 29 -29 32 -29 4 0 -34 39 -68 79 -68 76 0 120
110 65 164 -15 15 -65 20 -92 9z"/>
<path d="M3003 1502 c-25 -4 -63 -46 -63 -71 0 -10 9 -5 29 17 34 36 69 42 95
13 16 -17 14 -19 -44 -47 -33 -15 -60 -32 -60 -37 0 -18 51 -57 75 -57 39 0
62 16 74 51 9 26 7 39 -8 74 -20 44 -54 64 -98 57z m87 -112 c0 -39 -37 -59
-75 -42 -35 16 -32 25 18 49 55 28 57 28 57 -7z"/>
<path d="M2027 1438 c-26 -63 -39 -109 -33 -123 14 -36 116 -57 116 -24 0 7
-10 9 -25 5 -35 -9 -67 10 -63 37 3 20 8 22 65 19 59 -4 62 -3 68 21 4 14 4
34 1 45 -8 24 -47 42 -75 35 -12 -3 -21 -1 -21 6 0 23 -20 10 -33 -21z m103
-23 c29 -35 -26 -59 -83 -37 -16 7 -16 9 -2 30 19 26 66 30 85 7z"/>
<path d="M2640 1463 c0 -11 26 -200 41 -305 7 -49 17 -88 21 -88 4 0 8 10 8
23 0 46 -54 377 -62 377 -4 0 -8 -3 -8 -7z"/>
<path d="M2870 1436 c0 -7 7 -33 15 -56 22 -62 19 -88 -10 -102 -30 -13 -33
-28 -5 -28 10 0 24 10 31 21 9 17 13 19 20 8 4 -7 11 -10 15 -6 9 9 -45 177
-57 177 -5 0 -9 -6 -9 -14z"/>
<path d="M2215 1397 c-25 -19 -14 -32 15 -17 11 6 30 8 41 5 25 -8 55 -53 43
-65 -8 -8 -61 -1 -116 16 -15 4 -18 -1 -18 -35 0 -52 27 -81 74 -81 69 0 114
104 69 159 -23 28 -81 37 -108 18z m73 -106 c21 -6 21 -7 7 -29 -21 -28 -59
-28 -79 0 -33 47 -18 52 72 29z"/>
<path d="M2395 1333 c25 -46 25 -47 6 -67 -33 -35 -36 -69 -9 -100 19 -21 35
-27 86 -33 l62 -6 0 127 c0 72 -4 126 -9 126 -6 0 -11 -21 -13 -47 -3 -46 -4
-48 -35 -51 -30 -3 -34 1 -58 47 -14 28 -32 51 -40 51 -11 0 -9 -11 10 -47z
m115 -126 l0 -53 -42 4 c-51 5 -68 17 -68 48 0 34 26 54 71 54 l39 0 0 -53z"/>
</g>
</svg>
